# xmcd CD database file
#
# Track frame offsets:
#	150
#	14926
#	34687
#	48421
#	65370
#	80192
#	91384
#	107555
#	122464
#	140040
#	153853
#	167573
#	183850
#	199823
#
# Disc length: 2871 seconds
#
# Revision: 1
# Processed by: cddbd v1.5.2PL0 Copyright (c) Steve Scherf et al.
# Submitted via: CDex 1.51
#
DISCID=bb0b350e
DTITLE=Colonel Hammond's Four - Movin' On
DYEAR=2003
DGENRE=Country
TTITLE0=Louisiette
TTITLE1=Ticket To Heaven
TTITLE2=Who Did You Call Darling
TTITLE3=Mexican Wind
TTITLE4=I Just Want To Dance With You
TTITLE5=I Walk The Line
TTITLE6=Trail Of Tears
TTITLE7=I Said I Love You
TTITLE8=California Blue
TTITLE9=Jambalaya
TTITLE10=Husbands And Wives
TTITLE11=Lovin' All Night
TTITLE12=Teach Your Children
TTITLE13=Feels Like Coming Home
EXTD=YEAR: 2003
EXTT0=
EXTT1=
EXTT2=
EXTT3=
EXTT4=
EXTT5=
EXTT6=
EXTT7=
EXTT8=
EXTT9=
EXTT10=
EXTT11=
EXTT12=
EXTT13=
PLAYORDER=
